<svg width="101" height="100" viewBox="0 0 101 100" fill="none" xmlns="http://www.w3.org/2000/svg">
<circle cx="50.5" cy="50" r="47.5" fill="#3E9CDC" stroke="#286690" stroke-width="5"/>
<path d="M47.4932 51.1224V49.8367C47.4932 49.4751 47.7745 49.1939 48.1361 49.1939H62.2789C62.6405 49.1939 62.9218 49.4751 62.9218 49.8367V51.1224C62.9218 51.484 62.6405 51.7653 62.2789 51.7653H48.1361C47.7745 51.7653 47.4932 51.484 47.4932 51.1224Z" fill="white"/>
<path d="M48.1361 54.3367H62.2789C62.6405 54.3367 62.9218 54.618 62.9218 54.9796V56.2653C62.9218 56.6269 62.6405 56.9081 62.2789 56.9081H48.1361C47.7745 56.9081 47.4932 56.6269 47.4932 56.2653V54.9796C47.4932 54.618 47.7745 54.3367 48.1361 54.3367Z" fill="white"/>
<path d="M48.1361 59.4796H62.2789C62.6405 59.4796 62.9218 59.7608 62.9218 60.1224V61.4081C62.9218 61.7698 62.6405 62.051 62.2789 62.051H48.1361C47.7745 62.051 47.4932 61.7698 47.4932 61.4081V60.1224C47.4932 59.7608 47.7745 59.4796 48.1361 59.4796Z" fill="white"/>
<path fill-rule="evenodd" clip-rule="evenodd" d="M39.7789 43.0648C35.6837 43.0648 32.3639 39.745 32.3639 35.6498C32.3639 31.5546 35.6837 28.2348 39.7789 28.2348C43.2229 28.2348 46.1185 30.5828 46.9523 33.7653H59.7075C60.7722 33.7653 62.2588 34.3881 63.0021 35.1314L69.27 41.3992C70.0133 42.1425 70.6361 43.6291 70.6361 44.6939V67.8367C70.6361 68.9015 69.7722 69.7653 68.7075 69.7653H41.7075C40.6428 69.7653 39.7789 68.9015 39.7789 67.8367L39.7789 43.0648ZM42.3504 42.6068C44.9729 41.6371 46.897 39.227 47.1625 36.3367H57.7789V44.6939C57.7789 45.7586 58.6428 46.6224 59.7075 46.6224H68.0646V67.1939H42.3504V42.6068ZM61.174 36.9394C61.0334 36.7988 60.6919 36.618 60.3504 36.4974V44.051H67.9039C67.7834 43.7095 67.6026 43.368 67.462 43.2273L61.174 36.9394ZM40.7789 36.6498H44.7789V34.6498H40.7789V30.6498H38.7789V34.6498H34.7789V36.6498H38.7789V40.6498H40.7789V36.6498Z" fill="white"/>
</svg>
