<svg width="101" height="100" viewBox="0 0 101 100" fill="none" xmlns="http://www.w3.org/2000/svg">
<circle cx="50.5" cy="50" r="47.5" fill="#3E9CDC" stroke="#286690" stroke-width="5"/>
<path d="M57.4286 46.9286C57.4286 51.8906 53.3906 55.9286 48.4286 55.9286C43.4665 55.9286 39.4286 51.8906 39.4286 46.9286C39.4286 41.9665 43.4665 37.9286 48.4286 37.9286C53.3906 37.9286 57.4286 41.9665 57.4286 46.9286ZM67.7143 63.6429C67.7143 62.9598 67.433 62.2969 66.971 61.8348L60.0803 54.9442C61.7076 52.5937 62.5714 49.7812 62.5714 46.9286C62.5714 39.1138 56.2433 32.7857 48.4286 32.7857C40.6138 32.7857 34.2857 39.1138 34.2857 46.9286C34.2857 54.7433 40.6138 61.0714 48.4286 61.0714C51.2812 61.0714 54.0937 60.2076 56.4442 58.5803L63.3348 65.4509C63.7969 65.933 64.4598 66.2143 65.1429 66.2143C66.5491 66.2143 67.7143 65.0491 67.7143 63.6429Z" fill="white"/>
</svg>
