<svg width="101" height="100" viewBox="0 0 101 100" fill="none" xmlns="http://www.w3.org/2000/svg">
<circle cx="50.5" cy="50" r="47.5" fill="#3E9CDC" stroke="#286690" stroke-width="5"/>
<path d="M67.9286 60.8571C67.9286 61.1987 67.6272 61.5 67.2857 61.5H37.7143C37.3728 61.5 37.0714 61.1987 37.0714 60.8571V45.4286C37.4933 45.9107 37.9554 46.3527 38.4576 46.7545C41.3304 48.9643 44.2232 51.2143 47.0156 53.5446C48.5223 54.8103 50.3906 56.3571 52.4799 56.3571H52.5H52.5201C54.6094 56.3571 56.4777 54.8103 57.9844 53.5446C60.7768 51.2143 63.6696 48.9643 66.5424 46.7545C67.0446 46.3527 67.5067 45.9107 67.9286 45.4286V60.8571ZM67.9286 39.7433C67.9286 41.4509 66.2813 43.6808 64.9754 44.7053C62.2835 46.8147 59.5915 48.9442 56.9196 51.0737C55.8549 51.9375 53.9263 53.7857 52.5201 53.7857H52.5H52.4799C51.0737 53.7857 49.1451 51.9375 48.0804 51.0737C45.4085 48.9442 42.7165 46.8147 40.0246 44.7053C38.2165 43.279 37.0714 41.2902 37.0714 39C37.0714 38.6585 37.3728 38.3571 37.7143 38.3571H67.2857C68.0491 38.3571 67.9286 39.2411 67.9286 39.7433ZM70.5 39C70.5 37.2321 69.0536 35.7857 67.2857 35.7857H37.7143C35.9464 35.7857 34.5 37.2321 34.5 39V60.8571C34.5 62.625 35.9464 64.0714 37.7143 64.0714H67.2857C69.0536 64.0714 70.5 62.625 70.5 60.8571V39Z" fill="white"/>
</svg>
