<svg width="101" height="100" viewBox="0 0 101 100" fill="none" xmlns="http://www.w3.org/2000/svg">
<circle cx="50.5" cy="50" r="47.5" fill="#3E9CDC" stroke="#286690" stroke-width="5"/>
<path d="M47.4286 53.7857V51.8571H50V46.0714H49.9598C49.6384 46.5737 49.3371 46.7946 48.8549 47.2165L47.308 45.6094L50.2812 42.8571H52.5714V51.8571H55.1429V53.7857H47.4286ZM57.7143 48.6428C57.7143 44.9866 55.5045 40.2857 51.2857 40.2857C47.067 40.2857 44.8571 44.9866 44.8571 48.6428C44.8571 52.2991 47.067 57 51.2857 57C55.5045 57 57.7143 52.2991 57.7143 48.6428ZM68 53.7857C65.1674 53.7857 62.8571 56.096 62.8571 58.9286H39.7143C39.7143 56.096 37.404 53.7857 34.5714 53.7857V43.5C37.404 43.5 39.7143 41.1897 39.7143 38.3571H62.8571C62.8571 41.1897 65.1674 43.5 68 43.5V53.7857ZM70.5714 37.0714C70.5714 36.3683 69.9888 35.7857 69.2857 35.7857H33.2857C32.5826 35.7857 32 36.3683 32 37.0714V60.2143C32 60.9174 32.5826 61.5 33.2857 61.5H69.2857C69.9888 61.5 70.5714 60.9174 70.5714 60.2143V37.0714Z" fill="white"/>
</svg>
