<svg width="101" height="100" viewBox="0 0 101 100" fill="none" xmlns="http://www.w3.org/2000/svg">
<circle cx="50.5" cy="50" r="47.5" fill="#3E9CDC" stroke="#286690" stroke-width="5"/>
<path d="M61.2857 57.2143C61.2857 58.6205 60.1205 59.7857 58.7143 59.7857C57.308 59.7857 56.1429 58.6205 56.1429 57.2143C56.1429 55.808 57.308 54.6428 58.7143 54.6428C60.1205 54.6428 61.2857 55.808 61.2857 57.2143ZM45.8571 41.7857C45.8571 43.1919 44.692 44.3571 43.2857 44.3571C41.8795 44.3571 40.7143 43.1919 40.7143 41.7857C40.7143 40.3794 41.8795 39.2143 43.2857 39.2143C44.692 39.2143 45.8571 40.3794 45.8571 41.7857ZM66.4286 57.2143C66.4286 52.9553 62.9732 49.5 58.7143 49.5C54.4554 49.5 51 52.9553 51 57.2143C51 61.4732 54.4554 64.9286 58.7143 64.9286C62.9732 64.9286 66.4286 61.4732 66.4286 57.2143ZM64.5 35.3571C64.5 34.654 63.9174 34.0714 63.2143 34.0714H60C59.5982 34.0714 59.2165 34.2723 58.9754 34.5937L37.7612 62.8794C37.6004 63.1004 37.5 63.3616 37.5 63.6428C37.5 64.346 38.0826 64.9286 38.7857 64.9286H42C42.4018 64.9286 42.7835 64.7277 43.0246 64.4062L64.2388 36.1205C64.3996 35.8995 64.5 35.6384 64.5 35.3571ZM51 41.7857C51 37.5268 47.5446 34.0714 43.2857 34.0714C39.0268 34.0714 35.5714 37.5268 35.5714 41.7857C35.5714 46.0446 39.0268 49.5 43.2857 49.5C47.5446 49.5 51 46.0446 51 41.7857Z" fill="white"/>
</svg>
